<svg version="1" xmlns="http://www.w3.org/2000/svg" width="666.667" height="666.667" viewBox="0 0 500.000000 500.000000"><path d="M175 34.1c-3 .5-9.3 2.7-13.9 4.9-10.5 5.1-20 14.3-25 24.2-3.3 6.5-3.6 6.8-7 6.8-4.9 0-13.3 2.4-19.8 5.5-6.7 3.3-17.9 14.2-21.5 21.1-3.2 5.9-5.8 15.2-5.8 20.6 0 3.6-.2 3.8-7.2 7.4-17.3 9-28.8 26.8-28.8 44.7 0 5.5-.3 6.2-4.5 11C36.1 186.5 31 196 28 205.5c-3.4 10.7-3.2 26.3.4 37 1.5 4.4 4.5 11 6.7 14.7l4 6.7-2.5 4c-12.7 20-14.1 47.5-3.8 70.4 3.7 8.1 8.1 14.6 14.5 21.4l4.8 5.1.3 10.9c.3 12.5 2.4 20.2 8.3 30.2 10.1 17 30.8 29.1 50 29.1h6.2l8.3 8.4c7 7.1 9.8 9 17.8 12.9 12.1 5.7 18.2 7.2 30 7.1 33.2-.2 60.7-24.7 65.1-58.1.6-5.1.9-62.1.7-167.8l-.3-160-2.6-7.1c-4.7-12.8-12.3-22.2-23.3-28.8-11.2-6.7-25.5-9.6-37.6-7.5zm20.1 34.5c2.7 1.5 6 4.4 7.6 6.8l2.8 4.1.3 162.2c.2 161.7.2 162.2-1.8 167.7-2.6 6.9-9.7 14.9-16.4 18.4-4.6 2.4-6.2 2.7-15.1 2.7-9 0-10.5-.3-15.2-2.8-6.8-3.5-10.9-7.7-15.6-15.9-5.2-8.8-9.5-11.3-17.5-10.3-3.2.4-8.8.8-12.7.9-6 0-7.8-.4-12.4-2.9-6.4-3.5-11.5-9.9-13.6-16.8-1.9-6.3-1.9-9.1 0-15.4 3.3-11.2 12.7-18.7 25.8-20.5 8.3-1.1 11.5-2.6 15-6.8 7.2-8.5 2.5-22.1-8.6-25.1-10.6-2.9-34.1 4.8-44.5 14.5-2.7 2.6-5.2 4.6-5.5 4.6-1.2 0-6-9.2-7.8-15.1-1.1-3.4-1.9-8.9-1.9-12.4 0-6.9 3-18.1 5.8-21.4l1.7-2.1 6.5 2.1c9.3 3 23.6 3.6 33.5 1.4 12.4-2.7 22.6-8.5 32.5-18.5 11.4-11.3 16.9-22.7 18.9-38.8 1.4-11.2-1-17.7-8-21.3-5-2.5-10.5-2.4-15.3.4-5.3 2.9-7.2 6.6-8.5 16.2-1.4 9.9-4.1 15.7-10.3 21.7-6.2 6.1-13.8 9-23.3 9-20-.1-34.7-15.5-33.3-35 .7-9.2 4.1-15.6 12.2-22.7 8.6-7.6 9.5-10 8.2-21.6-1-8.7-.2-12.3 4.3-17.2 4.3-4.8 8.4-6.7 14.8-6.7 6.2-.1 12.4-2.9 15.4-7.1 2.6-3.7 3-9.4 1.4-21.5-.6-4.9-.4-6.7 1-9.5 8-15.7 27-15.8 34.9-.2.9 1.8 1.6 4.9 1.6 6.9 0 15.8 20 22.6 29.4 10.1 3.4-4.5 3.5-15.3.2-25-3.1-9.3-6.2-14.4-12.7-20.9l-4.9-4.9 1.6-3.1c3.7-7.1 9.9-10.7 18.8-10.8 4.5 0 7 .6 10.7 2.6zM307 34c-19.8 3.5-36.8 18-43.3 37l-2.2 6.5-.3 161c-.2 111 .1 163.2.8 168 4.1 26.2 21 45.8 46.8 54.3 10.5 3.4 26.4 3.5 36.7.2 12.4-3.9 20.3-8.7 29.1-17.5l8.2-8.2 8.8-.5c24.8-1.5 46.2-18.4 53.7-42.3 1.7-5.4 2.2-9.5 2.2-17.5v-10.5l3.2-2.8c13.5-11.9 23.3-34.7 23.3-54.2 0-15-3.1-26.8-10.2-38.8l-2.8-4.8 3.8-6.4c2.2-3.5 5.1-10.1 6.7-14.7 3.7-11.1 3.9-26.5.5-37.3-3-9.5-8.1-19-13.5-25.2-4.2-4.8-4.5-5.5-4.5-11 0-17.9-11.5-35.7-28.7-44.7-7.1-3.6-7.3-3.8-7.3-7.4 0-5.4-2.6-14.7-5.8-20.6-3.6-6.9-14.8-17.8-21.5-21.1-6.6-3.2-14.9-5.5-19.9-5.5-3.5 0-3.8-.2-7-6.8C354 43 329.1 30.2 307 34zm19.2 34.7c3.2 1.8 5.8 4.1 7.4 6.8l2.4 4.1-5.4 5.7c-6.8 7.1-9.8 12.3-12.6 21.5-2.8 9.2-2.5 19.7.6 23.9 9.4 12.5 29.4 5.6 29.4-10.1 0-6.5 4.5-13.3 11.2-16.7 12.9-6.6 28.7 5.4 26.3 20-.5 2.5-.9 7.5-.9 11.1-.2 11 4.9 15.7 18.1 17 8.2.8 12.5 3.1 16.4 8.8 2.5 3.6 2.7 5.9 1.9 20.8-.3 6.6.7 8.4 9.5 16.9 9.2 8.9 11.9 15.2 11.2 26-.5 8.8-3.6 15.5-9.9 21.7-12.5 12.2-34.1 12.2-46.6 0-6.2-6-8.9-11.8-10.3-21.7-1.3-9.3-2.7-12.5-7-15.6-7.2-5.1-18.3-2.8-23 4.7-5.2 8.4-.9 30.4 8.8 45.1 8.5 12.8 25.4 24.4 40.8 27.8 9.9 2.2 24.2 1.6 33.5-1.4l6.5-2.1 1.7 2.1c2.8 3.3 5.8 14.5 5.8 21.4 0 3.5-.8 9-1.9 12.4-1.8 5.8-6.6 15.1-7.7 15.1-.4 0-2.9-2-5.7-4.6-12.9-11.6-38.2-18.4-47.7-12.8-1.9 1.1-4.5 3.6-5.8 5.5-2 2.8-2.3 4.4-2 9.2.7 9.7 5.4 13.9 17.4 15.5 11.8 1.6 19.8 7.1 24.2 16.6 3.2 6.7 3.7 12.3 1.8 18.8-2.1 7.3-7.2 13.7-13.7 17.3-4.6 2.5-6.4 2.9-12.4 2.9-3.8-.1-9.5-.5-12.7-.9-7.9-1-12.3 1.5-17.3 10.1-4.7 8.1-9.3 12.7-15.8 16.2-4.7 2.4-6.2 2.7-15.2 2.7-8.9 0-10.5-.3-15.1-2.7-6.7-3.5-13.8-11.5-16.3-18.4-2.1-5.4-2.1-6.5-2.1-166.5 0-156.4.1-161.1 1.9-164.7 5.9-11.4 19.1-15.6 30.3-9.5z"/></svg>