<?xml version="1.0" standalone="no"?>
<!DOCTYPE svg PUBLIC "-//W3C//DTD SVG 20010904//EN"
 "http://www.w3.org/TR/2001/REC-SVG-20010904/DTD/svg10.dtd">
<svg version="1.0" xmlns="http://www.w3.org/2000/svg"
 width="512.000000pt" height="512.000000pt" viewBox="0 0 512.000000 512.000000"
 preserveAspectRatio="xMidYMid meet">
<metadata>
Created by potrace 1.11, written by Peter Selinger 2001-2013
</metadata>
<g transform="translate(0.000000,512.000000) scale(0.100000,-0.100000)"
fill="#000000" stroke="none">
<path d="M1825 4784 c-193 -48 -383 -201 -475 -384 -32 -63 -70 -181 -70 -216
0 -22 -4 -24 -44 -24 -74 0 -235 -47 -341 -99 -295 -146 -493 -407 -561 -741
-14 -69 -16 -116 -11 -250 6 -184 15 -221 88 -375 57 -122 101 -190 166 -256
l55 -56 -31 -61 c-176 -350 -137 -793 99 -1112 143 -193 373 -344 601 -394 19
-4 29 -14 34 -33 21 -88 136 -242 237 -318 131 -100 270 -145 444 -145 190 0
351 63 487 190 l72 67 71 -66 c138 -128 301 -191 493 -191 129 0 210 18 316
70 149 72 261 184 337 338 39 77 44 83 82 92 295 75 537 271 671 545 77 155
95 240 95 441 0 88 -5 187 -10 220 -18 98 -60 219 -101 289 l-39 67 58 68
c116 138 203 316 238 487 23 107 15 337 -15 447 -61 229 -215 448 -415 591
-127 90 -373 185 -481 185 -32 0 -32 1 -39 55 -15 130 -85 263 -196 375 -86
86 -171 139 -285 177 -73 25 -93 27 -235 27 -143 0 -161 -2 -230 -27 -100 -37
-196 -95 -269 -165 l-61 -58 -61 58 c-73 70 -170 129 -269 164 -64 23 -95 27
-210 30 -96 2 -152 -1 -195 -12z m1375 -976 c49 -34 72 -71 77 -125 5 -45 -6
-74 -152 -408 -87 -198 -159 -367 -162 -377 -4 -14 17 -16 219 -20 188 -3 228
-6 255 -21 33 -17 58 -56 73 -109 21 -71 29 -62 -673 -766 -364 -365 -675
-670 -691 -679 -42 -22 -120 -19 -156 7 -38 27 -60 69 -60 112 0 18 60 209
134 423 l133 390 -236 5 c-256 6 -276 10 -320 66 -39 49 -44 98 -16 166 10 25
1402 1331 1433 1345 44 20 105 16 142 -9z"/>
</g>
</svg>
